<svg width="123" height="21" fill="none" xmlns="http://www.w3.org/2000/svg"><path d="M16.362 20h4.59L12.501 1.1h-4.32L-.243 20h4.482l1.674-4.05h8.775L16.362 20zm-9.045-7.371l2.997-7.236 2.997 7.236H7.317zM22.913 20h8.586c6.183 0 10.422-3.726 10.422-9.45 0-5.724-4.24-9.45-10.422-9.45h-8.586V20zm4.374-3.591V4.691h3.996c3.753 0 6.21 2.241 6.21 5.859s-2.457 5.859-6.21 5.859h-3.996zM58.41 1.1l-5.832 13.5-5.751-13.5h-4.725L50.257 20h4.32l8.18-18.9h-4.346zm10.272 15.39v-4.374h8.775V8.714h-8.775V4.61h9.936V1.1H64.336V20H78.97v-3.51H68.683zM82.45 20h4.374V1.1H82.45V20zm12.774 0h4.374V4.664h6.048V1.1h-16.47v3.564h6.048V20zm18.854.324c5.4 0 8.019-2.7 8.019-5.859 0-6.939-10.989-4.536-10.989-8.019 0-1.188.999-2.16 3.591-2.16 1.674 0 3.483.486 5.238 1.485l1.35-3.321c-1.755-1.107-4.185-1.674-6.561-1.674-5.373 0-7.965 2.673-7.965 5.886 0 7.02 10.989 4.59 10.989 8.127 0 1.161-1.053 2.025-3.645 2.025-2.268 0-4.644-.81-6.237-1.971l-1.485 3.294c1.674 1.296 4.698 2.187 7.695 2.187z" fill="#060606"/></svg>