<svg width="92" height="25" fill="none" xmlns="http://www.w3.org/2000/svg"><path d="M23.573.473h-2.96c-.742.002-.811.075-.811.825v21.949c0 .612.105.714.709.717.968.006 1.937 0 2.909 0 .912 0 .996-.08.996-.98V4.354c0-1.022.002-2.041 0-3.063-.002-.695-.13-.816-.843-.818zM4.177.475A152.01 152.01 0 001.47.477C.523.49 0 1.03 0 1.98v21.19c0 .623.084.707.709.707.918.007 1.837.007 2.755 0 .965-.007 1.448-.488 1.448-1.447V1.241c.002-.62-.128-.76-.735-.766zm13.187 22.868c-.262-2.614-1.214-4.934-3.044-6.85-1.972-2.06-4.397-3.195-7.041-3.457-.854-.016-.861-.016-.838.628.009.238.055.472.091.707.473 3.134 2.005 5.63 4.556 7.497 1.67 1.228 3.562 1.866 5.62 2.059.613.059.717.016.656-.584zM16.723.532c-.234.038-.477.023-.709.059-2.682.427-4.959 1.614-6.77 3.648-1.658 1.861-2.58 4.056-2.798 6.534-.055.647-.02.648.661.736.934-.23 1.905-.372 2.798-.71 4.46-1.694 6.899-4.98 7.461-9.694.071-.598-.029-.666-.643-.573z" fill="#fff"/><path fill-rule="evenodd" clip-rule="evenodd" d="M36.596 6.641c2.504.616 3.984 2.357 4.052 4.959.075 2.875.084 5.753.093 8.632.003 1.016.007 2.032.013 3.048.001.52-.188.69-.722.693-.92.004-1.837.002-2.755 0-.779 0-.875-.096-.915-.864a1.915 1.915 0 00-.021-.191l-.02-.138c-.175.098-.341.194-.503.287-.32.185-.621.359-.932.51-1.634.79-3.336.864-5.054.359-1.546-.461-2.493-1.525-2.871-3.088a7.74 7.74 0 01-.07-3.386c.354-1.739 1.527-2.705 3.159-3.194 1.58-.479 3.207-.532 4.84-.516 1.167.014 1.169.003 1.165-1.18l.002-.201a3.62 3.62 0 00-.035-.716c-.175-.953-.815-1.548-1.868-1.548-1.765 0-3.53.075-5.293.175-.864.052-.979.01-.979-.864l.002-.552c.002-.429.005-.858-.005-1.284-.008-.34.126-.575.451-.643 2.738-.584 5.49-.987 8.267-.298zM32.52 20.782c1.073.186 2.084-.023 3.084-.41.43-.165.614-.404.56-.876-.028-.281-.021-.565-.015-.85.003-.125.006-.25.006-.376 0-.142.002-.283.003-.424.004-.386.008-.773-.017-1.157-.009-.132-.19-.362-.284-.359l-.261.01c-.978.033-1.96.067-2.93.187-.648.082-1.123.555-1.253 1.202a6.792 6.792 0 00-.108 1.864c.058.678.547 1.075 1.215 1.19z" fill="#fff"/><path d="M86.772 5.3v.134h.374v1.095h.161V5.434h.375V5.3h-.91zm2.198 0h-.213l-.22.595c-.051.155-.098.289-.128.414h-.002c-.037-.129-.075-.264-.125-.414l-.209-.595h-.201l-.084 1.229h.15L87.973 6c.011-.186.02-.391.023-.543H88c.038.145.084.304.141.477l.2.587h.12l.216-.598c.062-.17.11-.323.153-.466h.004c0 .15.01.36.023.53l.029.542h.16L88.97 5.3zm-19.122 7.46a13.67 13.67 0 00-.321-2.78c-.402-1.884-1.482-3.21-3.466-3.557-2.166-.384-4.23-.077-6.09 1.184-.182.122-.364.232-.676.43-.015-.366-.036-.592-.04-.823-.014-.6-.117-.712-.721-.716-.959-.005-1.909-.007-2.86.002-.561.004-.73.179-.73.737v15.926c0 .623.169.794.78.798 1.055.003 2.11-.011 3.165.009.472.005.684-.18.675-.665-.017-1.053-.005-2.107-.005-3.164 0-2.807-.005-5.614.01-8.421 0-.232.061-.58.217-.677 1.171-.722 2.428-1.164 3.827-.932.77.127 1.308.578 1.453 1.373a9.18 9.18 0 01.179 1.666c.021 3.338.01 6.671.01 10.007 0 .727.084.807.829.807.954.006 1.909.006 2.86 0 .824 0 .919-.09.919-.896 0-3.432.023-6.868-.015-10.307z" fill="#fff"/><path fill-rule="evenodd" clip-rule="evenodd" d="M85.993 10.984c.08.525.105 1.055.107 1.579.008 3.096.006 6.195.004 9.292v1.327c0 .702-.088.782-.8.782-.886.006-1.768.006-2.654 0-.76 0-.809-.044-.848-.785a1.553 1.553 0 00-.03-.257c-.003-.02-.014-.034-.034-.058a.845.845 0 01-.054-.073 1.78 1.78 0 01-.095.04.993.993 0 00-.198.1c-1.186.883-2.55 1.228-3.998 1.34-2.866.233-5.057-1.653-5.193-4.524-.034-.708-.052-1.43.054-2.124.26-1.675 1.292-2.787 2.883-3.236 1.167-.326 2.39-.47 3.598-.612l.103-.013c.536-.065 1.083-.047 1.63-.029.188.006.376.012.564.015.322.011.48-.1.463-.435-.01-.18-.01-.363-.01-.545 0-.329-.001-.659-.056-.98-.192-1.117-.824-1.697-1.952-1.693-1.748.01-3.497.089-5.247.187-.878.047-1.003-.023-1.003-.927V7.67c-.002-.435.185-.678.632-.782 2.034-.459 4.088-.707 6.166-.576.87.055 1.754.246 2.582.523 1.977.659 3.068 2.112 3.386 4.148zm-4.802 9.298c.284-.127.423-.298.41-.623a16.24 16.24 0 01-.008-.893c.001-.161.003-.323.002-.484l-.001-.387c-.002-.363-.004-.728.008-1.091.007-.336-.11-.506-.472-.49-.253.006-.508.001-.763-.003a12.279 12.279 0 00-1.174.016c-2.148.162-2.538.96-2.564 2.727-.015 1.039.47 1.6 1.296 1.74 1.148.188 2.222-.05 3.266-.512z" fill="#fff"/><path d="M53.021 6.923c.002-.455-.202-.65-.653-.632a6.5 6.5 0 00-3.604 1.252c-.146.107-.293.205-.512.362-.018-.244-.038-.389-.038-.535-.014-.733-.143-.868-.859-.868-.923-.004-1.837-.002-2.757-.002-.841.002-.98.137-.98.975v7.043c0 2.846-.002 5.687 0 8.525 0 .753.166.921.882.921.968.006 1.941.006 2.91 0 .783 0 .908-.118.908-.925.002-3.773.005-7.552-.007-11.334 0-.373.108-.585.451-.748 1.136-.534 2.3-.934 3.577-.882.468.02.695-.157.684-.652a61.464 61.464 0 01-.002-2.5z" fill="#fff"/></svg>