<svg width="125" height="23" fill="none" xmlns="http://www.w3.org/2000/svg"><path fill-rule="evenodd" clip-rule="evenodd" d="M116.603 5.564a4.371 4.371 0 00-1.044-2.031c-.651-.73-1.467-1.2-2.367-1.55-.947-.364-1.932-.56-2.937-.667a58.024 58.024 0 00-.356-.038 32.228 32.228 0 01-.534-.057c-.045-.004-.089 0-.134.004-.085.006-.171.013-.257-.034H100.2c-.108.583-.218 1.165-.327 1.748v.005l-.106.559c-.248 1.362-.5 2.722-.751 4.084l-.001.005v.003l-.308 1.665c-.313 1.709-.628 3.41-.948 5.12-.084.458-.167.92-.25 1.38l-.145.802c-.044.226-.046.23-.256.23h-9.665c-.063 0-.132.001-.213-.037l.06-.319c.026-.14.051-.281.08-.421.088-.485.178-.969.27-1.455l.2-1.075c.036-.207.04-.207.239-.207h5.693c.1.002.15.002.18-.023.032-.025.041-.078.06-.186l.01-.056c.132-.746.267-1.49.402-2.232l.244-1.342c.028-.156.028-.16-.138-.16-.248-.004-.5-.003-.751-.002l-.378.001h-4.545c-.127 0-.19 0-.216-.03-.026-.032-.015-.094.008-.218v-.007c.083-.438.164-.877.244-1.316.1-.546.201-1.092.304-1.637a2.71 2.71 0 00.02-.12c.013-.079.019-.12.043-.141.026-.023.073-.023.17-.021l.103.001c1.89-.005 3.786-.005 5.677-.005h.041c.045 0 .091-.002.131.005.126.012.161-.05.184-.16.092-.538.189-1.068.285-1.6l.02-.114c.157-.833.314-1.67.463-2.507l.005-.025a.702.702 0 00.023-.19H83.566c-.004.24-.053.471-.102.7l-.045.218c-.133.78-.278 1.555-.423 2.333l-.003.012-.115.615-.04.214v.002c-.2 1.08-.403 2.166-.597 3.25l-.397 2.159-.002.008c-.122.66-.244 1.32-.364 1.98l-.247 1.342-.328 1.787c-.033.165-.037.17-.214.17h-4.274c-.193 0-.202-.014-.163-.198.262-1.433.531-2.87.803-4.301l.006-.033.757-4.098a1039.29 1039.29 0 01.814-4.365c.075-.392.148-.79.22-1.186l.002-.005.084-.458a.545.545 0 00.008-.107c0-.015 0-.029.002-.043h-6.68l-.248 1.347-.704 3.81c-.21 1.14-.42 2.28-.628 3.422v.002l-.255 1.394-.431 2.32-.432 2.322c-.032.174-.036.179-.204.179h-4.168c-.193 0-.193-.01-.154-.198.161-.876.323-1.748.485-2.618l.002-.011v-.001c.182-.979.364-1.957.543-2.938.205-1.105.413-2.21.621-3.317l.002-.008c.15-.802.302-1.605.451-2.407.191-1.02.38-2.04.564-3.061l.006-.028a.39.39 0 00.01-.209h-6.681c-.01.21-.052.416-.094.621a9.706 9.706 0 00-.054.278c-.115.643-.233 1.28-.352 1.92l-.149.801-.384 2.078-.258 1.39c-.081.448-.164.895-.246 1.343-.143.774-.285 1.548-.425 2.322a3589.2 3589.2 0 00-.713 3.85l-.053.273c-.038.195-.076.389-.104.585-.018.117-.071.142-.172.142a.607.607 0 00-.088 0h-.043c-3.202 0-6.401 0-9.603-.004-.043 0-.08.001-.111.003-.17.008-.184.008-.128-.3.153-.823.3-1.644.447-2.466v-.002l.096-.531c.019-.104.029-.156.06-.183.034-.029.091-.029.209-.029h5.647a.867.867 0 01.114 0c.097.01.145-.032.161-.13.164-.922.33-1.842.497-2.761v-.001l.186-1.034c.002-.004.001-.009 0-.017l-.002-.006c-.062-.037-.128-.033-.194-.03l-.059.002h-5.566c-.273 0-.278 0-.23-.26l.284-1.554.284-1.553c.021-.112.062-.16.187-.156.168.004.336.003.506.001l.257-.001h5.167a.566.566 0 01.116.004c.118.012.164-.048.184-.16.055-.336.117-.668.18-1.001l.041-.22.274-1.51.274-1.508c.007-.04.01-.08.012-.121l.006-.073h-39.78c-.03.28-.084.553-.137.827l-.062.328-.255 1.4-.51 2.795c-.226 1.23-.45 2.459-.672 3.687l-.275 1.495-.275 1.495a2.33 2.33 0 01-.018.09c-.007.036-.015.072-.021.11-.056 0-.067-.034-.076-.065a4590.465 4590.465 0 01-1.354-3.724h-.001v-.003l-1.065-2.924a1623.132 1623.132 0 00-1.948-5.32 1.35 1.35 0 01-.033-.113 2.053 2.053 0 00-.02-.073h-6.94l-.1.52c-.067.346-.133.693-.198 1.04l-.41 2.224a2218.243 2218.243 0 01-1.016 5.5L1.6 12.873a2592.9 2592.9 0 00-.326 1.777 4594.38 4594.38 0 01-1.179 6.411l-.006.019a.362.362 0 01-.088.16v.032c-.002.061-.005.132.11.104.019-.009.038-.006.058-.003l.03.003h6.484c-.034-.099-.014-.192.005-.283l.01-.05.358-2.026.307-1.746.365-2.034c.122-.679.244-1.357.364-2.035.226-1.279.449-2.546.672-3.82l.008-.04c.032-.17.063-.34.09-.512.062-.004.07.031.076.066l.005.021c.3.856.596 1.716.89 2.576.726 2.101 1.452 4.204 2.177 6.308l.003.008v.002l.538 1.56.6 1.74a.553.553 0 00.024.072.442.442 0 01.04.182h23.754c.012-.235.058-.462.104-.684l.048-.239c.151-.835.306-1.674.46-2.512l.001-.005v-.003l.259-1.401.717-3.873.43-2.333v-.007l.2-1.087.314-1.69v-.003c.098-.52.195-1.04.291-1.562l.006-.035c.026-.145.027-.151.213-.151h3.275l.044.002a.544.544 0 00.043.002c.088-.009.118.04.106.118a30.36 30.36 0 00-.041.243c-.022.128-.043.256-.067.382a4934.21 4934.21 0 01-.95 5.134 3889.309 3889.309 0 00-1.568 8.496l-.17.944-.047.26h62.353c.01-.215.051-.422.092-.63h.001c.018-.094.037-.188.052-.282a796.37 796.37 0 011.002-5.475l.001-.005.001-.004.312-1.685.146-.804.146-.804c.059.006.065.047.071.086l.005.03c.451 1.504.904 3.017 1.35 4.53.492 1.652.982 3.296 1.467 4.943.01.03.014.058.019.09h6.642c-.097-.256-.191-.512-.286-.769-.138-.372-.275-.743-.418-1.11-.515-1.381-1.034-2.76-1.553-4.138l-.001-.002-.665-1.769c-.094-.238-.09-.24.156-.291l.003-.001c.618-.129 1.232-.274 1.812-.527 1.601-.71 2.643-1.902 3.135-3.583a7.725 7.725 0 00.267-1.824 6.567 6.567 0 00-.143-1.773zm-83.448.4c-.033.227-.075.454-.116.679l-.057.314a862.827 862.827 0 01-.561 3.039 587.34 587.34 0 01-.64 3.445l-.286 1.57-.001.004-.288 1.575v.002c-.034.191-.035.196-.236.196h-9.695a.75.75 0 00-.026 0c-.05.001-.102.003-.165-.032l.248-1.357.191-1.047c.04-.21.08-.418.118-.626l.043-.232.002-.006c.018-.104.028-.157.06-.183.031-.027.086-.027.196-.027h5.828c.292 0 .297 0 .352-.3a3618.787 3618.787 0 01.612-3.39 3.12 3.12 0 00.032-.186c.02-.14.019-.14-.124-.147H22.79c-.141 0-.21 0-.239-.034-.028-.033-.016-.1.006-.23l.202-1.163v-.001l.316-1.817v-.002c.039-.226.04-.23.269-.23h9.651c.18.004.19.016.158.186zm75.557 4.29c.616-.293 1.076-.737 1.329-1.376.173-.42.214-.858.2-1.302a2.07 2.07 0 00-1.297-1.943 4.615 4.615 0 00-1.29-.3 11.547 11.547 0 00-1.235-.04h-.154c-.172 0-.258 0-.308.042-.05.042-.064.126-.093.293l-.318 1.72c-.111.602-.222 1.204-.335 1.806l-.12.651-.121.658c-.021.104-.031.157-.009.184.022.028.078.028.193.03h1.081c.342-.001.687-.002 1.03-.049.504-.06.994-.163 1.447-.375zm12.775 8.259a3.713 3.713 0 00-.086.023c.367.266.609.618.852.973.088.13.177.26.273.386-.134.079-.261.07-.384.06a1.553 1.553 0 00-.113-.005c-.054 0-.082-.043-.109-.085a.318.318 0 00-.032-.044l-.22-.304c-.13-.18-.259-.36-.394-.537-.234-.31-.526-.424-.899-.343a.354.354 0 01-.107.004c-.061-.004-.121-.007-.157.042-.04.05-.028.123-.016.193.005.028.01.055.011.08.007.18.016.36.025.539l.019.372v.005c.004.157.005.18-.175.184h-.025c-.231.01-.235.01-.244-.242-.01-.186-.017-.373-.025-.56-.007-.183-.014-.367-.024-.55a168.087 168.087 0 01-.075-1.429 4.568 4.568 0 00-.003-.03c-.002-.018-.004-.036-.004-.055-.008-.156-.012-.234.024-.274.037-.039.113-.04.263-.046.172-.005.344-.015.516-.025a9.98 9.98 0 01.919-.025c.233 0 .444.055.614.225a.87.87 0 01-.301 1.433c-.04.013-.079.023-.123.035zm-.736-.28c.119-.004.238-.007.355-.017a1.03 1.03 0 00.334-.097.471.471 0 00.269-.462.474.474 0 00-.368-.432.846.846 0 00-.386-.042 2.9 2.9 0 01-.491.039 6.373 6.373 0 00-.227.007c-.216.01-.239.019-.207.219.02.124.022.248.025.373a3.177 3.177 0 00.015.3c.017.132.018.136.169.136h.065c.149-.018.298-.021.447-.025z" fill="#fff"/><path fill-rule="evenodd" clip-rule="evenodd" d="M120.285 15.477a2.976 2.976 0 013.402 2.127c.014.053.02.107.026.16a.616.616 0 00.059.245v.787c-.038.06-.041.128-.045.199-.003.045-.005.091-.017.136-.248.923-.803 1.587-1.665 1.997a2.678 2.678 0 01-.418.144c-.1.03-.201.058-.3.095h-1.046c-.081-.05-.17-.072-.259-.094a1.504 1.504 0 01-.151-.042c-1.136-.43-1.826-1.233-1.998-2.442-.223-1.569.862-3.04 2.412-3.312zm-1.916 2.934c.003 1.466 1.242 2.443 2.443 2.448 1.364.009 2.498-1.192 2.445-2.448.037-1.244-1.028-2.442-2.433-2.442a2.434 2.434 0 00-2.455 2.443z" fill="#fff"/></svg>