<svg width="109" height="40" fill="none" xmlns="http://www.w3.org/2000/svg"><path fill-rule="evenodd" clip-rule="evenodd" d="M26.68 17.392c.398.07.795.138 1.193.192.447.065.507.312.434.698-.125.652-.251 1.303-.378 1.954-.373 1.92-.745 3.839-1.062 5.764-.199 1.204-.275 2.428-.35 3.649l-.033.515c-.029.427-.129.587-.566.572a36.77 36.77 0 00-2.427 0c-.415.015-.553-.14-.513-.545.04-.43.064-.86.088-1.302l.04-.68c-.206.216-.399.431-.587.64-.408.457-.793.887-1.243 1.235-1.365 1.058-2.927 1.296-4.51.572-1.564-.72-2.206-2.114-2.27-3.754-.14-3.446 1.06-6.302 3.97-8.289 1.827-1.246 3.92-1.628 6.092-1.506.71.04 1.416.162 2.123.285zm-5.256 10.021a4.44 4.44 0 00.874-.973c.924-1.417 1.175-3.014 1.43-4.632.087-.55.174-1.102.287-1.65-1.262-.351-2.317-.11-3.204.638-1.669 1.404-2.422 3.237-2.278 5.41.043.674.296 1.312.998 1.594.707.282 1.349.082 1.893-.387z" fill="#fff"/><path d="M67.564 3.893c-1.793-3.08-5.906-2.29-5.906-2.29-.327.073-.66.153-.991.215-2 .373-3.885 1.06-5.69 1.975-3.921 1.987-7.433 4.554-10.588 7.59a133.992 133.992 0 00-6.1 6.26c-3.449 3.784-6.402 7.94-8.762 12.497-1.216 2.344-2.3 4.758-2.8 7.382-.094.483.062 1.038.217 1.527.067.191.423.34.672.418.066.017.268-.303.357-.491.576-1.25 1.03-2.57 1.734-3.736 1.406-2.34 2.877-4.649 4.453-6.876 2.527-3.58 5.422-6.86 8.52-9.962 2.927-2.933 5.922-5.79 9.616-7.769 1.695-.909 3.415-1.79 5.195-2.52 3.06-1.262 6.249-2.117 9.536-2.606.346-.05.82-.327.933-.616.096-.249-.396-.998-.396-.998z" fill="#fff"/><path fill-rule="evenodd" clip-rule="evenodd" d="M11.122 12.551c2.13.525 3.607 2.016 3.858 3.774.509 3.506-1.531 6.31-4.576 7.313-1.6.533-3.23.646-4.888.498-.392-.038-.51.066-.576.435-.347 1.907-.72 3.818-1.098 5.72-.026.154-.164.4-.258.405-.942.023-1.885.022-2.871.02H0l.173-.968c.11-.62.216-1.215.33-1.806.359-1.887.72-3.773 1.081-5.66.583-3.046 1.166-6.092 1.743-9.14.057-.31.149-.526.47-.575 2.443-.37 4.887-.618 7.325-.016zM7.818 21.02c1.349-.144 2.444-.755 3.046-2.042.687-1.458.194-3.005-1.108-3.462-.925-.332-1.878-.26-2.827-.134-.116.018-.273.194-.3.32a515.797 515.797 0 00-.846 4.432l-.17.902c.252 0 .494.006.73.011.514.013.998.025 1.475-.027z" fill="#fff"/><path d="M34.264 12.447c-.355-3.023-1.657-5.598-3.729-7.794-.24-.257-.588-.446-.922-.569-.344-.124-.57.072-.537.465.028.344.06.693.12 1.035.42 2.376.826 4.756 1.277 7.13.354 1.853.74 3.702 1.16 5.542.138.595.378 1.182.662 1.726.216.416.527.383.816.003.122-.158.256-.32.32-.503.622-1.704.945-3.464.982-5.282-.049-.584-.08-1.171-.149-1.753zm68.32 7.617c.078-.866.143-1.735.216-2.662-1.071 0-2.069-.013-3.051.018-.116.004-.311.247-.32.387-.278 3.442-.978 6.818-1.653 10.198-.171.875-.325 1.753-.496 2.717 1.282 0 2.484.01 3.691-.018.091-.002.225-.255.256-.404.377-1.844.669-3.716 1.115-5.547.642-2.63 1.727-3.542 4.296-3.88.113-.015.282-.135.304-.229.242-1.142.46-2.284.702-3.52-2.477-.257-3.86 1.17-5.06 2.94z" fill="#fff"/><path fill-rule="evenodd" clip-rule="evenodd" d="M97.071 20.869c.105 1.715-.682 3.011-2.309 3.771-1.633.76-3.39.864-5.157.904-.242.006-.483.004-.731.003a48.352 48.352 0 00-.385-.003c-.129 1.283.791 2.265 2.184 2.434 1.303.155 2.56-.038 3.785-.487.204-.069.411-.146.682-.251l.054.514c.07.656.137 1.289.17 1.917.005.156-.168.413-.32.474-2.21.908-4.497 1.22-6.828.584-2.096-.573-3.198-2.096-3.45-4.187-.324-2.669.36-5.086 2.223-7.062 1.996-2.122 4.478-2.88 7.313-2.098 1.736.48 2.66 1.73 2.77 3.487zm-3.633.038c-.073-.543-.447-.805-.947-.942-1.55-.425-3.464.986-3.638 2.81.254-.016.503-.028.749-.04a19.224 19.224 0 001.638-.126 5.546 5.546 0 001.52-.438c.518-.22.756-.682.678-1.264z" fill="#fff"/><path d="M70.129 19.88c-.16-1.444-1.133-2.482-2.544-2.722-1.71-.28-3.19.218-4.476 1.34-.351.304-.682.633-1.065.99.054-.7.11-1.375.163-2.077h-3.31c-.817 4.429-1.621 8.82-2.446 13.302 1.273 0 2.422.016 3.578-.02.129-.004.329-.269.36-.437.287-1.434.547-2.88.798-4.316.235-1.327.469-2.644 1.15-3.829.46-.809 1.02-1.533 1.963-1.833.967-.31 1.696.158 1.809 1.155.035.29.056.591.009.878a317.13 317.13 0 01-.856 5.038c-.193 1.096-.406 2.189-.61 3.271.104.049.155.089.204.089 1.12.009 2.242.031 3.362 0 .129-.005.322-.26.36-.422.382-1.887.738-3.771 1.095-5.665.303-1.562.634-3.126.456-4.742z" fill="#fff"/><path fill-rule="evenodd" clip-rule="evenodd" d="M81.887 24.58c-1.22.605-2.538.833-3.88.911-.576.035-1.156.026-1.742.017a53.344 53.344 0 00-.803-.008c-.09 1.353.825 2.313 2.21 2.482 1.337.167 2.635-.046 3.883-.526l.182-.067c.079-.029.157-.058.236-.084a.209.209 0 01.08-.005l.085.002.06.615c.06.586.12 1.176.153 1.765.002.154-.175.411-.322.47-2.178.89-4.436 1.201-6.731.608-2.14-.551-3.314-2.087-3.551-4.229-.334-3.031.553-5.691 2.913-7.7 1.944-1.655 4.227-2.173 6.7-1.435 1.653.49 2.578 1.724 2.702 3.433.116 1.684-.618 2.967-2.175 3.751zm-1.458-3.653c-.087-.558-.46-.84-.989-.97-1.556-.377-3.382.988-3.591 2.714 1.011.211 3.064-.035 3.851-.451.542-.282.816-.749.729-1.293zm-26.678-2.731c1.305.968 1.938 2.317 2.043 3.915.097 1.665-.185 3.267-.972 4.74-1.475 2.762-3.826 4.109-6.204 4.178-3.453.004-5.42-1.271-6.145-3.573-1.186-3.78 1.094-9.683 6.676-10.303 1.671-.184 3.231.025 4.602 1.043zm-5.186 9.886c.715-.064 1.282-.44 1.713-.989 1.16-1.469 1.611-3.173 1.456-5-.125-1.497-1.258-2.304-2.643-1.984-.673.151-1.178.575-1.582 1.12-.904 1.22-1.269 2.622-1.311 4.12l-.003.186a4.12 4.12 0 00.005.416c.105 1.36 1.082 2.251 2.365 2.131z" fill="#fff"/></svg>