<svg width="96" height="28" fill="none" xmlns="http://www.w3.org/2000/svg"><path fill-rule="evenodd" clip-rule="evenodd" d="M15.465 3.35c.605.383 1.092.893 1.4 1.51.34.617.491 1.39.493 2.31 0 2.102-.864 3.799-2.617 5.083-1.743 1.282-4.17 1.922-7.304 1.926h-.734c-.562 0-1.11.443-1.228.973l-.88 3.808c-.122.543-.673.974-1.23.974H.804c-.557 0-.906-.444-.775-.974l3.6-15.684c.131-.538.677-.97 1.233-.978l5.352-.004c1.159.011 2.16.082 3.025.24.852.16 1.596.43 2.227.817zm-7.367 7.486c1.388 0 2.465-.284 3.24-.851.771-.568 1.169-1.368 1.154-2.41.003-.685-.245-1.202-.74-1.527-.5-.328-1.248-.498-2.228-.498l-.84.005c-.55-.003-1.113.439-1.221.973l-.771 3.33c-.121.537.22.978.778.978h.628z" fill="#fff"/><path d="M89.927 3.522l-.16.049-.215.03-.264-.041-.134-.13-.062-.206-.004-.308v-1.14h.857v-.354h-.856v-.71h-.424v.71h-.288v.353h.288v1.327l.198.657.582.21.245-.021.26-.05v-.376h-.023zM93.9 1.603l-.612-.252-.451.092-.46.31-.266-.297-.433-.103-.417.092-.394.254v-.277h-.416v2.492h.415v-1.86l.349-.217.347-.086.284.05.14.144.061.239.02.308v1.424h.417V2.322l-.007-.132-.008-.122.355-.226.35-.087.275.05.15.144.052.24.028.305v1.424h.418V2.3l-.196-.697z" fill="#fff"/><path fill-rule="evenodd" clip-rule="evenodd" d="M24.644 6.285c2.087 0 3.614.273 4.58.818.97.543 1.464 1.392 1.457 2.538l-.045.618-.097.66-1.869 8.087c-.112.49-.592.9-1.103.96l-.034.015h-2.38l-.009-.011c-.487-.049-.79-.46-.685-.96v-.004l.006-.016.097-.411-.013-.019-.967.639-1.051.582-1.242.428c-.38.091-.916.145-1.609.149-1.093 0-2.008-.303-2.7-.922-.69-.631-1.044-1.447-1.044-2.434 0-1.05.244-1.944.733-2.681.506-.734 1.23-1.31 2.207-1.74.909-.416 2.003-.72 3.25-.894a42.954 42.954 0 013.78-.41l.37-.228.044-.362c0-.557-.258-.941-.773-1.165-.522-.22-1.306-.329-2.331-.329-.695-.009-1.57.133-2.4.321-.604.135-.903.24-1.171.333-.119.04-.232.08-.362.12-.198.068-.672.1-.495-.723l.314-1.29s.153-.973 1.127-1.185l.14-.031c.356-.078.49-.107 1.174-.212a20.32 20.32 0 013.1-.241zm.048 10.438l.4-.526c.157-.62.485-1.994.52-2.17l-.177-.313c-.15.004-1.308.137-1.894.21a9.398 9.398 0 00-1.69.38l-1.086.74c-.256.317-.375.73-.375 1.25l.494.961c.334.187.83.279 1.46.279.416 0 .866-.098 1.34-.29l1.008-.52zM71.197 6.294c2.08 0 3.606.275 4.578.82.977.543 1.466 1.389 1.464 2.531l-.054.62-.1.662-1.873 8.078c-.107.494-.585.905-1.09.966l-.04.014h-2.378l-.003-.01c-.493-.045-.797-.459-.682-.96l-.004-.007.01-.007.088-.415-.017-.02-.96.646-1.06.582-1.238.422c-.382.099-.918.144-1.607.151-1.094 0-1.999-.31-2.695-.928-.698-.627-1.05-1.442-1.05-2.437 0-1.04.242-1.932.736-2.67.5-.735 1.234-1.312 2.207-1.743.91-.418 2.008-.72 3.251-.894a40.635 40.635 0 013.784-.407l.366-.234.04-.36c0-.55-.255-.939-.774-1.163-.52-.22-1.305-.33-2.326-.33-.696-.004-1.579.134-2.406.32-.588.138-.881.24-1.144.331a8.381 8.381 0 01-.375.123c-.217.064-.68.101-.504-.722l.313-1.288s.152-.976 1.124-1.187l.165-.035c.34-.074.484-.104 1.155-.202a19.514 19.514 0 013.099-.247zm.039 10.446l.416-.532c.153-.623.483-1.991.51-2.169l-.181-.312c-.15.002-1.303.139-1.886.211a9.52 9.52 0 00-1.687.38c-.47.182-.85.432-1.098.737-.244.323-.366.731-.366 1.254l.5.958c.325.186.807.28 1.458.28.41 0 .861-.1 1.335-.29l.999-.517zM61.998 3.403c.608.392 1.09.894 1.41 1.516.326.61.484 1.385.494 2.301 0 2.104-.876 3.797-2.606 5.09-1.751 1.28-4.184 1.925-7.321 1.925h-.734c-.554-.004-1.105.443-1.232.973l-.868 3.81c-.129.537-.687.974-1.232.97l-2.567.004c-.545 0-.903-.44-.772-.973l3.604-15.69c.129-.533.665-.966 1.223-.975l5.359-.004c1.152.002 2.165.084 3.015.235.864.157 1.603.43 2.227.818zm-7.35 7.487c1.382 0 2.46-.284 3.234-.84.769-.571 1.155-1.374 1.15-2.415-.006-.684-.243-1.199-.745-1.527-.504-.329-1.244-.491-2.23-.497l-.83.006c-.554-.006-1.11.44-1.224.972l-.777 3.325c-.123.534.233.982.784.976h.639z" fill="#fff"/><path d="M85.385 3.453c.118-.535-.218-.97-.769-.963H82.32c-.47 0-.894.35-1.101.778l-.127.198-.116.508-3.209 14.586-.104.448.003.011c-.106.48.189.842.644.911l.04.055h2.383c.467 0 .906-.355 1.105-.792l.124-.187 3.43-15.55-.007-.003zM46.64 6.481c-.606.008-3.072 0-3.072 0-.552 0-1.262.446-1.613.978 0 0-3.67 6.298-4.026 6.931l-.426-.006-1.142-6.882c-.127-.541-.693-1.004-1.396-1.004l-2.296.004c-.553 0-.893.44-.768.978 0 0 1.744 9.921 2.093 12.256.162 1.288-.02 1.518-.02 1.518l-2.27 3.953c-.337.538-.155.977.395.977l2.655-.004c.552 0 1.278-.435 1.607-.974l10.21-17.27c0 .001.982-1.475.07-1.455z" fill="#fff"/></svg>