<svg width="123" height="21" viewBox="0 0 123 21" fill="none" xmlns="http://www.w3.org/2000/svg">
<path d="M16.362 20H20.952L12.501 1.1H8.181L-0.243 20H4.239L5.913 15.95H14.688L16.362 20ZM7.317 12.629L10.314 5.393L13.311 12.629H7.317ZM22.9129 20H31.4989C37.6819 20 41.9209 16.274 41.9209 10.55C41.9209 4.826 37.6819 1.1 31.4989 1.1H22.9129V20ZM27.2869 16.409V4.691H31.2829C35.0359 4.691 37.4929 6.932 37.4929 10.55C37.4929 14.168 35.0359 16.409 31.2829 16.409H27.2869ZM58.4107 1.1L52.5787 14.6L46.8277 1.1H42.1027L50.2567 20H54.5767L62.7577 1.1H58.4107ZM68.6827 16.49V12.116H77.4577V8.714H68.6827V4.61H78.6187V1.1H64.3357V20H78.9697V16.49H68.6827ZM82.45 20H86.824V1.1H82.45V20ZM95.2244 20H99.5984V4.664H105.646V1.1H89.1764V4.664H95.2244V20ZM114.078 20.324C119.478 20.324 122.097 17.624 122.097 14.465C122.097 7.526 111.108 9.929 111.108 6.446C111.108 5.258 112.107 4.286 114.699 4.286C116.373 4.286 118.182 4.772 119.937 5.771L121.287 2.45C119.532 1.343 117.102 0.776 114.726 0.776C109.353 0.776 106.761 3.449 106.761 6.662C106.761 13.682 117.75 11.252 117.75 14.789C117.75 15.95 116.697 16.814 114.105 16.814C111.837 16.814 109.461 16.004 107.868 14.843L106.383 18.137C108.057 19.433 111.081 20.324 114.078 20.324Z" fill="#060606"/>
</svg>
