<svg width="92" height="25" viewBox="0 0 92 25" fill="none" xmlns="http://www.w3.org/2000/svg">
<path d="M23.5732 0.473267C22.5857 0.473267 21.6 0.473267 20.6125 0.473267C19.8714 0.475052 19.8018 0.548267 19.8018 1.29827C19.8018 4.92148 19.8018 8.54648 19.8018 12.1697C19.8018 15.8608 19.8018 19.5518 19.8018 23.2465C19.8018 23.859 19.9071 23.9608 20.5107 23.9643C21.4785 23.9697 22.4482 23.9643 23.4196 23.9643C24.3321 23.9643 24.416 23.884 24.416 22.984C24.416 16.7733 24.416 10.5626 24.416 4.35362C24.416 3.3322 24.4178 2.31255 24.416 1.29112C24.4143 0.596481 24.2857 0.475052 23.5732 0.473267Z" fill="white"/>
<path d="M4.17679 0.475001C3.275 0.469644 2.37321 0.466072 1.46964 0.476787C0.523214 0.491072 0 1.03036 0 1.98036C0 5.48571 0 8.99286 0 12.4982C0 16.0571 0 19.6107 0 23.1696C0 23.7929 0.0839286 23.8768 0.708929 23.8768C1.62679 23.8839 2.54643 23.8839 3.46429 23.8768C4.42857 23.8696 4.9125 23.3893 4.9125 22.4304C4.9125 15.3679 4.9125 8.30179 4.9125 1.24107C4.91429 0.62143 4.78393 0.480358 4.17679 0.475001Z" fill="white"/>
<path d="M17.3643 23.3428C17.1018 20.7286 16.15 18.4089 14.3196 16.4928C12.3482 14.4321 9.92318 13.2982 7.27854 13.0357C6.42497 13.0196 6.41782 13.0196 6.44104 13.6643C6.44997 13.9018 6.49639 14.1357 6.53211 14.3714C7.00532 17.5053 8.53747 20.0018 11.0875 21.8678C12.7589 23.0964 14.65 23.7339 16.7089 23.9268C17.3214 23.9857 17.425 23.9428 17.3643 23.3428Z" fill="white"/>
<path d="M16.7231 0.532117C16.4892 0.569617 16.2464 0.555331 16.0142 0.591045C13.3321 1.01783 11.0553 2.20533 9.24458 4.23926C7.58565 6.09997 6.66422 8.29462 6.44636 10.7732C6.39101 11.4196 6.42672 11.4214 7.10708 11.5089C8.04101 11.2785 9.01243 11.1375 9.90529 10.7982C14.3642 9.10533 16.8035 5.81962 17.366 1.10533C17.4374 0.507117 17.3374 0.43926 16.7231 0.532117Z" fill="white"/>
<path fill-rule="evenodd" clip-rule="evenodd" d="M36.5965 6.64109C39.1 7.25716 40.5804 8.99823 40.6483 11.6C40.7235 14.4747 40.7324 17.3534 40.7413 20.2323C40.7444 21.2483 40.7476 22.2644 40.7536 23.2804C40.7554 23.8 40.5661 23.9697 40.0322 23.9732C39.1125 23.9768 38.1947 23.975 37.2768 23.9732C36.4983 23.9732 36.4018 23.8768 36.3625 23.1089C36.3601 23.0526 36.3521 22.9971 36.3406 22.9176C36.335 22.8786 36.3285 22.8339 36.3215 22.7804C36.1461 22.8779 35.9796 22.9741 35.818 23.0674C35.4976 23.2524 35.1968 23.426 34.8858 23.5768C33.2518 24.3679 31.55 24.4411 29.8322 23.9357C28.2858 23.475 27.3393 22.4107 26.9608 20.8482C26.6875 19.7197 26.6643 18.5857 26.8911 17.4625C27.2447 15.7232 28.4179 14.7572 30.05 14.2679C31.6304 13.7893 33.2572 13.7357 34.8893 13.7518C36.0572 13.7661 36.059 13.7554 36.0554 12.5714C36.0554 12.505 36.0564 12.4381 36.0574 12.371C36.0611 12.1301 36.0648 11.8873 36.0215 11.6554C35.8465 10.7018 35.2072 10.1072 34.1536 10.1072C32.3893 10.1072 30.6233 10.1822 28.8608 10.2822C27.9965 10.3339 27.8822 10.2911 27.8822 9.41787C27.8822 9.23409 27.8831 9.05015 27.8841 8.86624C27.8864 8.43722 27.8886 8.00838 27.8786 7.58216C27.8715 7.24109 28.0054 7.00716 28.3304 6.9393C31.0679 6.35537 33.8197 5.9518 36.5965 6.64109ZM32.5197 20.7822C33.5929 20.9679 34.6036 20.7589 35.6036 20.3714C36.034 20.2072 36.2179 19.9679 36.1643 19.4964C36.1358 19.2149 36.1426 18.9308 36.1494 18.6459C36.1524 18.5206 36.1554 18.3951 36.1554 18.2697C36.1554 18.1284 36.1568 17.9869 36.1582 17.8455C36.1621 17.4596 36.1659 17.0735 36.1411 16.6893C36.1322 16.5572 35.9518 16.3268 35.8572 16.3304C35.7701 16.3334 35.6829 16.3365 35.5957 16.3395C34.6178 16.3732 33.6367 16.4071 32.6661 16.5268C32.0179 16.6089 31.5429 17.0822 31.4125 17.7286C31.2911 18.3339 31.2554 18.9732 31.3054 19.5929C31.3625 20.2714 31.8518 20.6679 32.5197 20.7822Z" fill="white"/>
<path d="M86.7715 5.30006V5.43398H87.1465V6.52863H87.3072V5.43398H87.6822V5.30006H86.7715Z" fill="white"/>
<path d="M88.9697 5.30006H88.7572L88.5376 5.8947C88.4858 6.05006 88.4393 6.18398 88.409 6.30898H88.4072C88.3697 6.18041 88.3322 6.0447 88.2822 5.8947L88.0733 5.30006H87.8715L87.7876 6.52863H87.9376L87.9733 6.00006C87.984 5.81434 87.9929 5.60898 87.9965 5.4572H88.0001C88.0376 5.60184 88.084 5.76077 88.1411 5.93398L88.3411 6.52148H88.4608L88.6768 5.92327C88.7393 5.75363 88.7876 5.60006 88.8304 5.4572H88.834C88.834 5.6072 88.8447 5.81791 88.8572 5.98756L88.8858 6.52863H89.0465L88.9697 5.30006Z" fill="white"/>
<path d="M69.8483 12.7607C69.8376 11.8321 69.7286 10.8928 69.5268 9.98032C69.1251 8.09639 68.0447 6.76961 66.0608 6.42318C63.8947 6.03925 61.8304 6.34639 59.9715 7.60711C59.7893 7.72854 59.6072 7.83925 59.2947 8.03747C59.2804 7.67139 59.259 7.44461 59.2554 7.21425C59.2411 6.61425 59.1376 6.50175 58.534 6.49818C57.5751 6.49282 56.6251 6.49104 55.6733 6.49997C55.1126 6.50354 54.9447 6.67854 54.9447 7.23747C54.9429 12.5464 54.9429 17.8535 54.9447 23.1625C54.9447 23.7857 55.1126 23.9571 55.7233 23.9607C56.7786 23.9643 57.834 23.95 58.8893 23.9696C59.3608 23.975 59.5733 23.7893 59.5643 23.3053C59.5465 22.2518 59.559 21.1982 59.559 20.141C59.559 17.3339 59.5536 14.5268 59.5697 11.7196C59.5697 11.4875 59.6304 11.1393 59.7858 11.0428C60.9572 10.3214 62.2143 9.87854 63.6126 10.1107C64.3822 10.2375 64.9215 10.6893 65.0661 11.4839C65.1679 12.0339 65.2447 12.5928 65.2447 13.15C65.2661 16.4875 65.2554 19.8214 65.2554 23.1571C65.2554 23.8839 65.3393 23.9643 66.084 23.9643C67.0376 23.9696 67.9929 23.9696 68.9447 23.9643C69.7679 23.9643 69.8626 23.8732 69.8626 23.0678C69.8626 19.6357 69.8858 16.2 69.8483 12.7607Z" fill="white"/>
<path fill-rule="evenodd" clip-rule="evenodd" d="M85.9929 10.984C86.0733 11.509 86.0983 12.0393 86.1 12.5625C86.1079 15.6595 86.1061 18.7578 86.1043 21.8551C86.1041 22.2975 86.1038 22.7398 86.1036 23.1822C86.1036 23.884 86.0161 23.9643 85.3036 23.9643C84.4179 23.9697 83.5358 23.9697 82.65 23.9643C81.8893 23.9643 81.8411 23.9197 81.8018 23.1786C81.7983 23.0911 81.7893 23.0072 81.7715 22.9215C81.7694 22.9028 81.7577 22.8884 81.7382 22.8642C81.724 22.8467 81.7057 22.8241 81.684 22.7911C81.6513 22.8058 81.6195 22.819 81.5887 22.8318C81.5151 22.8622 81.4478 22.8901 81.3911 22.9304C80.2054 23.8143 78.8411 24.159 77.3929 24.2715C74.5268 24.5036 72.3358 22.6179 72.2 19.7465C72.1661 19.0393 72.1483 18.3179 72.2536 17.6232C72.5143 15.9482 73.5465 14.8357 75.1375 14.3875C76.3044 14.0611 77.527 13.917 78.7347 13.7747C78.769 13.7706 78.8033 13.7666 78.8375 13.7625C79.374 13.6975 79.9213 13.7153 80.4678 13.7332C80.6562 13.7393 80.8445 13.7455 81.0322 13.7482C81.3536 13.759 81.5125 13.6482 81.4947 13.3125C81.4851 13.1324 81.4849 12.9504 81.4846 12.7681C81.4842 12.4391 81.4838 12.1093 81.4286 11.7875C81.2375 10.6715 80.6054 10.0911 79.4768 10.0947C77.7286 10.1054 75.9804 10.184 74.2304 10.2822C73.3518 10.3286 73.2268 10.259 73.2268 9.35539C73.2268 9.16855 73.227 8.98151 73.2272 8.79441C73.2276 8.42 73.228 8.04533 73.2268 7.67146C73.225 7.23574 73.4125 6.99289 73.859 6.88932C75.8929 6.43039 77.9465 6.18217 80.025 6.31253C80.8947 6.36789 81.7786 6.55896 82.6072 6.83574C84.584 7.49467 85.675 8.94824 85.9929 10.984ZM81.1911 20.2822C81.475 20.1554 81.6143 19.984 81.6018 19.659C81.588 19.3596 81.5905 19.0624 81.5931 18.7661C81.5945 18.6046 81.5959 18.4434 81.5947 18.2822C81.5947 18.1537 81.5941 18.0248 81.5935 17.8955C81.5917 17.5325 81.59 17.1671 81.6018 16.8036C81.609 16.4679 81.4929 16.2982 81.1304 16.3143C80.8767 16.3199 80.6218 16.3153 80.367 16.3107C79.9743 16.3036 79.5816 16.2965 79.1929 16.3268C77.0447 16.4893 76.6554 17.2875 76.6286 19.0536C76.6143 20.0929 77.0983 20.6536 77.925 20.7947C79.0733 20.9822 80.1465 20.7447 81.1911 20.2822Z" fill="white"/>
<path d="M53.0213 6.92318C53.0231 6.46782 52.8195 6.27318 52.3677 6.29104C51.0392 6.34818 49.8392 6.76604 48.7642 7.54282C48.6177 7.64997 48.4713 7.74818 48.2517 7.90532C48.2338 7.66068 48.2142 7.51604 48.2142 7.36961C48.1999 6.63747 48.0713 6.50175 47.3552 6.50175C46.432 6.49818 45.5177 6.49997 44.5981 6.49997C43.757 6.50175 43.6177 6.63747 43.6177 7.47497C43.6177 9.8214 43.6177 12.1714 43.6177 14.5178C43.6177 17.3643 43.616 20.2053 43.6177 23.0428C43.6177 23.7964 43.7838 23.9643 44.4999 23.9643C45.4677 23.9696 46.441 23.9696 47.4106 23.9643C48.1927 23.9643 48.3177 23.8464 48.3177 23.0393C48.3195 19.266 48.3231 15.4875 48.3106 11.7053C48.3106 11.3321 48.4195 11.1196 48.7624 10.9571C49.8981 10.4232 51.0624 10.0232 52.3392 10.075C52.807 10.0946 53.0338 9.91782 53.0231 9.42318C53.0035 8.58747 53.007 7.75711 53.0213 6.92318Z" fill="white"/>
</svg>
