<svg width="23" height="22" viewBox="0 0 23 22" fill="none" xmlns="http://www.w3.org/2000/svg">
<path fill-rule="evenodd" clip-rule="evenodd" d="M2.64196 5.30848C1.18348 5.30848 0 4.10045 0 2.64196C0 1.18348 1.18348 0 2.64196 0C4.10045 0 5.28393 1.18348 5.28393 2.64196C5.28393 4.10045 4.10045 5.30848 2.64196 5.30848ZM4.92545 22H0.363393V7.31205H4.92545V22ZM17.4478 22H22H22.0049V13.9317C22.0049 9.98348 21.1554 6.94375 16.5393 6.94375C14.3196 6.94375 12.8317 8.16161 12.2228 9.31563H12.1589V7.31205H7.78348V22H12.3406V14.7272C12.3406 12.8121 12.704 10.9607 15.0759 10.9607C17.4134 10.9607 17.4478 13.146 17.4478 14.85V22Z" fill="#060606"/>
</svg>
