<svg width="125" height="23" viewBox="0 0 125 23" fill="none" xmlns="http://www.w3.org/2000/svg">
<path fill-rule="evenodd" clip-rule="evenodd" d="M116.603 5.56369C116.44 4.80929 116.093 4.12389 115.559 3.53279C114.908 2.80369 114.092 2.33219 113.192 1.98259C112.245 1.61919 111.26 1.42369 110.255 1.31559C110.136 1.30271 110.018 1.29056 109.899 1.27842C109.721 1.2602 109.543 1.24199 109.365 1.22129C109.32 1.21736 109.276 1.22095 109.231 1.22453C109.146 1.23144 109.06 1.23832 108.974 1.19139H100.2C100.092 1.77428 99.9824 2.35585 99.8729 2.9391L99.8721 2.94358L99.7671 3.50289C99.5191 4.86532 99.2676 6.22544 99.0159 7.58653L99.015 7.59189L99.0143 7.59521C98.9118 8.14984 98.8092 8.70462 98.7068 9.25979C98.394 10.9687 98.0789 12.6707 97.7592 14.3796C97.675 14.8385 97.5917 15.3001 97.5087 15.7599C97.4603 16.0283 97.4119 16.2961 97.3636 16.5623C97.3199 16.7877 97.3176 16.7923 97.1083 16.7923H87.4621L87.4433 16.7924C87.3797 16.7927 87.3114 16.7932 87.2298 16.7555C87.2506 16.6495 87.2701 16.543 87.2897 16.4365L87.2899 16.4354C87.3156 16.2951 87.3414 16.1546 87.3701 16.0149C87.4577 15.5305 87.5483 15.0462 87.6394 14.5597C87.7061 14.2029 87.7731 13.8449 87.8393 13.4849C87.8761 13.2779 87.8807 13.2779 88.0785 13.2779H91.6366H93.6905C93.7207 13.2779 93.7476 13.2782 93.7717 13.2785C93.8715 13.2796 93.9224 13.2802 93.9527 13.2555C93.9842 13.2299 93.9933 13.1769 94.012 13.0689C94.015 13.0518 94.0182 13.0333 94.0217 13.0134C94.1537 12.2674 94.2893 11.5232 94.4245 10.7808C94.5061 10.3329 94.5875 9.88574 94.668 9.43919C94.6956 9.28279 94.6956 9.27819 94.53 9.27819C94.2817 9.27512 94.0304 9.27614 93.7787 9.27716H93.7786C93.6526 9.27767 93.5265 9.27819 93.4007 9.27819H88.8559C88.7293 9.27819 88.6661 9.27819 88.6401 9.24706C88.6141 9.21598 88.6253 9.15385 88.6477 9.02966L88.6489 9.02289C88.7309 8.58503 88.8116 8.14626 88.8923 7.70719C88.9927 7.16143 89.0931 6.61521 89.1963 6.06969C89.205 6.02282 89.2111 5.98364 89.2162 5.95092C89.2285 5.87109 89.235 5.82966 89.2591 5.80851C89.2852 5.78569 89.3319 5.78645 89.429 5.78805C89.4585 5.78853 89.4926 5.78909 89.5321 5.78909C91.4227 5.78449 93.3179 5.78449 95.2085 5.78449C95.2221 5.78449 95.2362 5.78421 95.2505 5.78393C95.2946 5.78306 95.3411 5.78215 95.381 5.78909C95.5075 5.80059 95.542 5.73849 95.565 5.62809C95.6573 5.09137 95.7536 4.56066 95.8502 4.02848L95.8709 3.91459C96.0273 3.08199 96.1837 2.24479 96.3332 1.40759L96.3383 1.38331L96.3384 1.38323C96.3511 1.32318 96.3649 1.25843 96.3608 1.19369H83.5659C83.5624 1.43224 83.5128 1.6642 83.464 1.89257C83.4483 1.96585 83.4327 2.03875 83.4187 2.11139C83.2864 2.89088 83.1412 3.66609 82.9955 4.44377L82.9953 4.44477L82.9933 4.45594C82.9549 4.6609 82.9164 4.86605 82.8782 5.07149L82.8385 5.28479L82.838 5.28733C82.6373 6.36646 82.4352 7.45303 82.2411 8.53759C82.1095 9.25797 81.9766 9.9771 81.8438 10.696L81.8422 10.7043C81.7203 11.3643 81.5984 12.0241 81.4775 12.6845C81.3948 13.1323 81.313 13.5793 81.2313 14.0256C81.1221 14.6223 81.013 15.2178 80.9025 15.8125C80.8703 15.9781 80.8657 15.9827 80.6886 15.9827H76.4152C76.222 15.9827 76.2128 15.9689 76.2519 15.7849C76.5141 14.352 76.7832 12.9145 77.0546 11.4839L77.0608 11.4507C77.314 10.0841 77.5672 8.71745 77.8182 7.35309C78.0061 6.33317 78.1963 5.31773 78.3864 4.30286C78.4685 3.86447 78.5505 3.42618 78.6324 2.98769C78.7068 2.59583 78.78 2.19802 78.8529 1.80196L78.8539 1.79653L78.9383 1.33859C78.9449 1.30425 78.9456 1.26758 78.9463 1.2319V1.23183C78.9466 1.21734 78.9468 1.20302 78.9475 1.18909H72.2683L72.0199 2.53637C71.786 3.80545 71.5523 5.07306 71.3161 6.34569C71.1054 7.48608 70.8969 8.62647 70.6883 9.76768L70.6879 9.77009C70.603 10.2346 70.518 10.6993 70.4329 11.1642C70.2892 11.937 70.1454 12.7109 70.0017 13.4849C69.8579 14.2588 69.7142 15.0328 69.5704 15.8056C69.5382 15.9804 69.5336 15.985 69.3657 15.985H65.1981C65.0049 15.985 65.0049 15.9758 65.044 15.7872C65.205 14.911 65.367 14.0393 65.5288 13.1687L65.5308 13.1578L65.531 13.1569C65.7129 12.178 65.8946 11.2004 66.0744 10.2189C66.2794 9.1143 66.4874 8.00818 66.6954 6.9023L66.6969 6.89431C66.8478 6.09161 66.9988 5.28904 67.1485 4.48729C67.3394 3.46609 67.528 2.44719 67.712 1.42599L67.7183 1.39823C67.7336 1.33191 67.7503 1.25961 67.7281 1.18909H61.0466C61.0371 1.39943 60.995 1.60542 60.9532 1.81005C60.9342 1.90302 60.9152 1.9957 60.8994 2.08839C60.7842 2.73095 60.6656 3.36894 60.5467 4.008L60.5465 4.00895C60.497 4.27541 60.4474 4.54205 60.398 4.80929C60.2699 5.50357 60.1418 6.19538 60.0137 6.88719L59.7563 8.27769C59.6745 8.72463 59.5921 9.17219 59.5096 9.62002C59.3672 10.3936 59.2246 11.1681 59.0847 11.9416C58.8455 13.2296 58.6086 14.5084 58.3717 15.7918C58.3549 15.8833 58.3371 15.9743 58.3194 16.0651L58.3193 16.0654L58.3193 16.0655C58.2813 16.2601 58.2435 16.4538 58.2153 16.6497C58.1969 16.767 58.144 16.7923 58.0428 16.7923C58.0137 16.7892 57.9845 16.7902 57.9554 16.7913C57.9408 16.7918 57.9263 16.7923 57.9117 16.7923C54.7101 16.7923 51.5108 16.7923 48.3092 16.7877C48.2663 16.7877 48.2292 16.7894 48.1976 16.7908C48.0278 16.7986 48.0138 16.7993 48.07 16.491C48.2232 15.6682 48.3702 14.8469 48.5174 14.0246L48.5176 14.0234L48.6128 13.4918C48.6319 13.3885 48.6417 13.3356 48.6734 13.3086C48.7067 13.2802 48.7642 13.2802 48.8819 13.2802H54.4686C54.4887 13.2802 54.5086 13.2797 54.5282 13.2792C54.5671 13.2781 54.6052 13.2771 54.6434 13.2802C54.74 13.2894 54.7883 13.248 54.8044 13.1491C54.9683 12.2278 55.1345 11.3078 55.3006 10.389L55.3009 10.3876L55.4875 9.35409C55.4894 9.35039 55.4882 9.34521 55.4865 9.33735L55.4852 9.33109C55.4233 9.29393 55.3573 9.29761 55.2914 9.30128C55.2716 9.30239 55.2518 9.30349 55.2322 9.30349H49.6662C49.3925 9.30349 49.3879 9.30349 49.4362 9.04359C49.5306 8.52468 49.6255 8.00692 49.7204 7.48917L49.7204 7.48899C49.8153 6.97181 49.9101 6.45462 50.0043 5.93629C50.025 5.82359 50.0664 5.77529 50.1906 5.77989C50.3589 5.78448 50.5273 5.78296 50.6969 5.78143L50.697 5.78143C50.7824 5.78066 50.868 5.77989 50.9542 5.77989H56.0832C56.0958 5.77989 56.1084 5.7796 56.1211 5.77932L56.1211 5.77931C56.1592 5.77845 56.1976 5.77758 56.2373 5.78449C56.3546 5.79599 56.4006 5.73619 56.4213 5.62349C56.476 5.28811 56.5383 4.95581 56.6008 4.62281L56.6421 4.40219C56.733 3.89826 56.8245 3.39549 56.9159 2.89272L56.916 2.89247C57.0073 2.39023 57.0987 1.88798 57.1895 1.38459C57.1967 1.34434 57.1994 1.3041 57.2021 1.26385C57.2037 1.2397 57.2053 1.21554 57.2079 1.19139H17.4271C17.3975 1.47067 17.3445 1.74409 17.2915 2.01751C17.2702 2.12688 17.249 2.23625 17.2293 2.34599L16.9739 3.74663C16.8037 4.68019 16.6336 5.61375 16.4634 6.54119C16.238 7.77169 16.0149 8.99989 15.7918 10.2281C15.701 10.726 15.609 11.2246 15.517 11.7231C15.425 12.2216 15.333 12.7201 15.2421 13.2181C15.2368 13.2488 15.2306 13.2785 15.2242 13.3085L15.2242 13.3086C15.2168 13.3439 15.2092 13.3797 15.203 13.4182C15.1465 13.4182 15.1363 13.3843 15.1268 13.353C15.1248 13.3461 15.1227 13.3393 15.1202 13.3331C14.6705 12.0995 14.2214 10.8645 13.7723 9.62925L13.772 9.62843L13.7713 9.62639C13.4169 8.65161 13.0624 7.67667 12.7075 6.70219C12.2305 5.39181 11.7511 4.08519 11.271 2.77678C11.1005 2.31226 10.93 1.84751 10.7594 1.38229C10.7467 1.34688 10.7365 1.30798 10.7263 1.26881L10.7263 1.26879C10.72 1.24436 10.7136 1.21984 10.7065 1.19599H3.76511C3.73214 1.36927 3.69892 1.54254 3.66569 1.71582C3.59925 2.06234 3.53281 2.40887 3.46841 2.75539C3.33157 3.49637 3.19517 4.23825 3.05883 4.97984L3.05881 4.97992L3.05875 4.98024C2.88576 5.92119 2.71284 6.86168 2.53921 7.79929C2.37404 8.69438 2.20822 9.58691 2.04244 10.4792L2.04236 10.4797L2.04225 10.4803C1.89414 11.2775 1.74607 12.0745 1.59851 12.8731C1.48992 13.4649 1.38163 14.0573 1.27332 14.6499L1.27329 14.65C1.08567 15.6764 0.897967 16.7033 0.708411 17.7284C0.503711 18.8416 0.299011 19.9525 0.0943114 21.0611L0.087724 21.0798C0.0654993 21.1433 0.0461297 21.1986 1.13577e-05 21.2405C0.000362554 21.2503 1.66178e-05 21.2611 -0.000338633 21.2721C-0.00230994 21.3333 -0.00456807 21.4035 0.110411 21.3762C0.128731 21.367 0.148065 21.37 0.167739 21.3731C0.177705 21.3746 0.187758 21.3762 0.197811 21.3762H6.68151C6.64845 21.277 6.66801 21.1844 6.68735 21.0928L6.68736 21.0928C6.69089 21.0761 6.69442 21.0594 6.69761 21.0427C6.81749 20.3692 6.93604 19.6936 7.05468 19.0175L7.0547 19.0174C7.15686 18.4353 7.25909 17.8527 7.36231 17.2707C7.48304 16.5923 7.60493 15.9144 7.72681 15.2366L7.72686 15.2363C7.84876 14.5584 7.97066 13.8805 8.09141 13.202C8.31681 11.9232 8.53991 10.6559 8.76301 9.38169L8.77059 9.34131C8.80254 9.17106 8.8342 9.00235 8.86191 8.82969C8.92272 8.82589 8.93015 8.86133 8.93738 8.89582L8.93738 8.89584C8.9389 8.90309 8.94041 8.9103 8.94241 8.91709C9.24141 9.77269 9.53811 10.6329 9.83251 11.4931C10.5581 13.5941 11.2837 15.6974 12.0093 17.8007L12.012 17.8086L12.0129 17.8112C12.1914 18.3324 12.3708 18.852 12.5504 19.3719L12.5504 19.3719C12.7503 19.9508 12.9504 20.53 13.1491 21.1117C13.1564 21.1362 13.1652 21.1598 13.174 21.1832C13.1956 21.2409 13.2168 21.2976 13.2135 21.3647H36.9679C36.9798 21.1295 37.0264 20.9031 37.0723 20.6808L37.0723 20.6808C37.0887 20.6009 37.1051 20.5215 37.1197 20.4424C37.2714 19.6071 37.426 18.768 37.5804 17.93L37.5813 17.9249L37.5819 17.9219C37.668 17.4543 37.7541 16.987 37.8396 16.5209C38.0788 15.2283 38.318 13.938 38.5572 12.6477C38.7011 11.8702 38.844 11.0917 38.9865 10.315L38.9878 10.3077L39.1874 9.22069C39.2912 8.65615 39.3963 8.09347 39.5014 7.53104L39.5019 7.52833C39.5991 7.00783 39.6962 6.48754 39.7923 5.96619L39.7985 5.93113C39.8236 5.78586 39.8247 5.77989 40.0108 5.77989H43.286C43.301 5.77989 43.3153 5.78104 43.3297 5.78219C43.3441 5.78334 43.3585 5.78449 43.3734 5.78449C43.4608 5.77529 43.4907 5.82359 43.4792 5.90179C43.465 5.98281 43.4514 6.06383 43.4379 6.14471C43.4165 6.27278 43.3951 6.40052 43.3711 6.52739C43.056 8.23629 42.7386 9.94979 42.4212 11.661C42.1084 13.3423 41.7956 15.0305 41.4851 16.7118C41.2712 17.8618 41.0619 19.0072 40.8526 20.1572C40.7949 20.4744 40.7387 20.7888 40.6827 21.1014L40.6364 21.3601H102.989C102.999 21.146 103.04 20.9385 103.081 20.7307L103.082 20.7302C103.1 20.6368 103.119 20.5434 103.134 20.4493C103.314 19.4442 103.498 18.4368 103.682 17.4317C103.832 16.6118 103.984 15.7927 104.136 14.9735L104.137 14.9686L104.138 14.9646C104.242 14.4033 104.346 13.8419 104.45 13.2802C104.499 13.0134 104.548 12.7449 104.596 12.4764L104.596 12.4763C104.644 12.2078 104.693 11.9393 104.742 11.6725C104.801 11.678 104.807 11.7186 104.813 11.7582L104.813 11.7583C104.814 11.7683 104.816 11.7782 104.818 11.7875C105.269 13.2917 105.722 14.8051 106.168 16.3185C106.66 17.9699 107.15 19.6144 107.635 21.2612C107.645 21.2911 107.649 21.3187 107.654 21.3509H114.296C114.199 21.0954 114.105 20.8387 114.01 20.5821L114.01 20.5814C113.872 20.2101 113.735 19.8389 113.592 19.4718C113.077 18.091 112.558 16.7113 112.039 15.3343L112.038 15.3316C111.816 14.7415 111.594 14.152 111.373 13.5631C111.279 13.3248 111.283 13.3239 111.529 13.2716L111.532 13.271C112.15 13.1422 112.764 12.9973 113.344 12.7443C114.945 12.0336 115.987 10.8422 116.479 9.16089C116.647 8.56519 116.723 7.95799 116.746 7.33699C116.773 6.73899 116.737 6.15019 116.603 5.56369ZM33.1545 5.96389C33.1216 6.19135 33.0801 6.41773 33.0388 6.64305L33.0387 6.64327C33.0195 6.74824 33.0003 6.85298 32.982 6.95749C32.798 7.96489 32.6094 8.98379 32.4208 9.99579C32.2709 10.818 32.1174 11.6403 31.9637 12.4634C31.9029 12.7892 31.8421 13.1151 31.7814 13.4412C31.6862 13.9654 31.5904 14.4885 31.4946 15.0116L31.494 15.0151C31.3979 15.5396 31.3019 16.0642 31.2064 16.5899L31.206 16.5922C31.1719 16.7831 31.1711 16.7877 30.9695 16.7877H21.275C21.2701 16.7877 21.2651 16.7878 21.2601 16.7879C21.2563 16.7879 21.2524 16.788 21.2486 16.7881C21.199 16.7893 21.1465 16.7906 21.0841 16.7555C21.1669 16.299 21.2496 15.8476 21.332 15.3985C21.3961 15.0487 21.46 14.7004 21.5234 14.352C21.5636 14.1427 21.6025 13.9335 21.6412 13.726L21.6413 13.7254L21.6844 13.4941L21.6856 13.4875C21.7044 13.3836 21.7138 13.3312 21.7452 13.3048C21.7771 13.2779 21.8318 13.2779 21.942 13.2779H27.7702C28.0623 13.2779 28.0669 13.2779 28.1221 12.9789C28.3199 11.8795 28.5177 10.7847 28.7178 9.67839C28.7232 9.64773 28.7288 9.61758 28.7344 9.58744L28.7344 9.58739C28.7457 9.52709 28.7569 9.46678 28.7661 9.40239C28.7868 9.2622 28.7845 9.26209 28.6423 9.2552L28.6419 9.25519H28.4671H22.7907C22.65 9.25519 22.5804 9.25519 22.552 9.22099C22.5242 9.18755 22.5357 9.12144 22.5584 8.99069C22.6258 8.60352 22.6928 8.216 22.7599 7.82813L22.76 7.82741L22.7602 7.82653C22.8647 7.22184 22.9695 6.61629 23.0759 6.00989L23.0763 6.00756C23.115 5.78216 23.1158 5.77759 23.345 5.77759H29.785H32.8417H32.9958C33.1752 5.78219 33.1867 5.79369 33.1545 5.96389ZM108.712 10.2534C109.328 9.96129 109.788 9.51739 110.041 8.87799C110.214 8.45709 110.255 8.02009 110.241 7.57619C110.237 6.70449 109.751 5.97309 108.944 5.63269C108.528 5.46249 108.098 5.37969 107.654 5.33369C107.245 5.29075 106.832 5.29144 106.419 5.29212C106.368 5.2922 106.316 5.29229 106.265 5.29229C106.093 5.29229 106.007 5.29229 105.957 5.33453C105.907 5.37659 105.893 5.46054 105.864 5.62809C105.757 6.20234 105.651 6.77549 105.546 7.34836C105.435 7.95025 105.324 8.55182 105.211 9.15399C105.171 9.37036 105.131 9.58788 105.091 9.8054C105.051 10.0249 105.01 10.2444 104.97 10.4627C104.949 10.567 104.939 10.6199 104.961 10.647C104.983 10.6748 105.039 10.6754 105.154 10.6766H106.053C106.114 10.6762 106.175 10.6762 106.235 10.6761C106.577 10.6756 106.922 10.6751 107.265 10.6283C107.769 10.5685 108.259 10.465 108.712 10.2534Z" fill="white"/>
<path fill-rule="evenodd" clip-rule="evenodd" d="M121.487 18.5128C121.46 18.5197 121.432 18.527 121.401 18.5357C121.768 18.8019 122.01 19.1545 122.253 19.5094C122.341 19.639 122.43 19.7689 122.526 19.895C122.392 19.9739 122.265 19.9646 122.142 19.9557C122.104 19.9529 122.066 19.9502 122.029 19.9502C121.975 19.9502 121.947 19.9072 121.92 19.8652C121.91 19.8497 121.9 19.8344 121.888 19.8214C121.814 19.72 121.741 19.6186 121.668 19.5175C121.538 19.3366 121.409 19.1567 121.274 18.9796C121.04 18.6691 120.748 18.5564 120.375 18.6369C120.342 18.6454 120.305 18.6432 120.268 18.641C120.207 18.6373 120.147 18.6337 120.111 18.6829C120.071 18.7339 120.083 18.8061 120.095 18.8759C120.1 18.9037 120.105 18.9311 120.106 18.9566C120.113 19.1363 120.122 19.3153 120.131 19.4948C120.138 19.6186 120.144 19.7426 120.15 19.8674L120.15 19.8717C120.154 20.0288 120.155 20.0515 119.975 20.056C119.966 20.0563 119.958 20.0566 119.95 20.0569C119.719 20.0655 119.715 20.0657 119.706 19.8145C119.696 19.628 119.689 19.441 119.681 19.2533C119.674 19.0706 119.667 18.8874 119.657 18.7036C119.638 18.368 119.621 18.0346 119.604 17.6988C119.596 17.5582 119.589 17.4171 119.582 17.2753C119.581 17.2647 119.58 17.2547 119.579 17.2448C119.577 17.2269 119.575 17.2095 119.575 17.1902C119.567 17.0338 119.563 16.9561 119.599 16.9165C119.636 16.8774 119.712 16.8751 119.862 16.8705C120.034 16.8655 120.206 16.8555 120.378 16.8454C120.683 16.8275 120.99 16.8096 121.297 16.8199C121.53 16.8199 121.741 16.8751 121.911 17.0453C122.36 17.4938 122.204 18.2505 121.61 18.4782C121.57 18.4911 121.531 18.5013 121.487 18.5128ZM120.751 18.2322C120.87 18.2292 120.989 18.2263 121.106 18.216C121.224 18.1999 121.336 18.1723 121.44 18.1194C121.629 18.0205 121.714 17.8641 121.709 17.6571C121.698 17.4524 121.553 17.2776 121.341 17.2247C121.215 17.1833 121.088 17.1649 120.955 17.1833C120.791 17.2148 120.627 17.2183 120.464 17.2217C120.388 17.2233 120.313 17.225 120.237 17.2293C120.021 17.2385 119.998 17.2477 120.03 17.4478C120.05 17.5721 120.052 17.6964 120.055 17.8208C120.056 17.9126 120.058 18.0045 120.067 18.0964C120.068 18.1054 120.069 18.1138 120.07 18.1218C120.087 18.2533 120.088 18.2574 120.239 18.2574H120.304C120.453 18.2395 120.602 18.2358 120.751 18.2322Z" fill="white"/>
<path fill-rule="evenodd" clip-rule="evenodd" d="M120.285 15.4767C121.833 15.203 123.271 16.1391 123.687 17.6042C123.701 17.657 123.707 17.7108 123.713 17.7644C123.721 17.8484 123.73 17.9317 123.772 18.009V18.7956C123.734 18.8557 123.731 18.9243 123.727 18.9947C123.724 19.0401 123.722 19.0863 123.71 19.1314C123.462 20.0537 122.907 20.7184 122.045 21.1278C121.911 21.1912 121.77 21.2317 121.627 21.2724C121.527 21.3011 121.426 21.3299 121.327 21.367H120.281C120.2 21.317 120.111 21.2952 120.022 21.2734C119.971 21.2611 119.92 21.2487 119.871 21.2313C118.735 20.8012 118.045 19.9985 117.873 18.7887C117.65 17.2201 118.735 15.7481 120.285 15.4767ZM118.369 18.4115C118.372 19.8766 119.611 20.8541 120.812 20.8587C122.176 20.8679 123.31 19.6673 123.257 18.4115C123.294 17.1672 122.229 15.9689 120.824 15.9689C119.457 15.9689 118.365 17.0545 118.369 18.4115Z" fill="white"/>
</svg>
