<svg width="109" height="40" viewBox="0 0 109 40" fill="none" xmlns="http://www.w3.org/2000/svg">
<path fill-rule="evenodd" clip-rule="evenodd" d="M26.6808 17.3921C27.0779 17.4611 27.4752 17.5301 27.8733 17.5845C28.32 17.6489 28.38 17.8956 28.3066 18.2822C28.1823 18.9337 28.0559 19.5848 27.9294 20.2357C27.5564 22.1559 27.1836 24.0748 26.8666 26C26.668 27.2038 26.5922 28.428 26.5167 29.6488C26.506 29.8208 26.4954 29.9927 26.4844 30.1645C26.4555 30.5911 26.3555 30.7511 25.9178 30.7356C25.1111 30.7089 24.2978 30.7089 23.4911 30.7356C23.0755 30.7511 22.9378 30.5956 22.9778 30.1911C23.0176 29.7619 23.0418 29.3306 23.0665 28.889C23.079 28.6653 23.0917 28.439 23.1066 28.2089C22.9001 28.4246 22.7072 28.64 22.5193 28.8499C22.1109 29.3061 21.7261 29.7359 21.2755 30.0845C19.9111 31.1422 18.3489 31.38 16.7666 30.6556C15.2022 29.9356 14.56 28.5422 14.4955 26.9022C14.3555 23.4556 15.5555 20.6 18.4666 18.6134C20.2933 17.3667 22.3866 16.9845 24.5578 17.1067C25.2677 17.1465 25.9741 17.2693 26.6808 17.3921ZM21.4244 27.4134C21.7555 27.1356 22.0644 26.8022 22.2978 26.44C23.2217 25.0234 23.4733 23.4261 23.7282 21.8078C23.8148 21.2581 23.9017 20.706 24.0155 20.1578C22.7533 19.8067 21.6978 20.0489 20.8111 20.7956C19.1422 22.2 18.3889 24.0334 18.5333 26.2067C18.5755 26.88 18.8289 27.5178 19.5311 27.8C20.2378 28.0822 20.88 27.8822 21.4244 27.4134Z" fill="white"/>
<path d="M67.5644 3.89335C65.7711 0.813351 61.6578 1.60224 61.6578 1.60224C61.3311 1.67557 60.9978 1.75557 60.6667 1.8178C58.6667 2.19113 56.7822 2.8778 54.9778 3.79335C51.0556 5.78002 47.5444 8.34668 44.3889 11.3822C42.2911 13.4 40.2533 15.4889 38.2889 17.6422C34.84 21.4267 31.8867 25.5822 29.5267 30.14C28.3111 32.4845 27.2267 34.8978 26.7267 37.5222C26.6333 38.0045 26.7889 38.56 26.9444 39.0489C27.0111 39.24 27.3667 39.3889 27.6156 39.4667C27.6822 39.4845 27.8844 39.1645 27.9733 38.9756C28.5489 37.7267 29.0022 36.4067 29.7067 35.24C31.1133 32.9 32.5844 30.5911 34.16 28.3645C36.6867 24.7845 39.5822 21.5045 42.68 18.4022C45.6067 15.4689 48.6022 12.6111 52.2956 10.6334C53.9911 9.72446 55.7111 8.84224 57.4911 8.11335C60.5511 6.85113 63.74 5.99557 67.0267 5.50668C67.3733 5.4578 67.8467 5.18002 67.96 4.89113C68.0555 4.64224 67.5644 3.89335 67.5644 3.89335Z" fill="white"/>
<path fill-rule="evenodd" clip-rule="evenodd" d="M11.1222 12.5512C13.2511 13.0756 14.7289 14.5667 14.98 16.3245C15.4889 19.8312 13.4489 22.6356 10.4044 23.6378C8.80444 24.1712 7.17333 24.2845 5.51556 24.1356C5.12444 24.0978 5.00667 24.2023 4.94 24.5712C4.59333 26.4778 4.22 28.3889 3.84222 30.2912C3.81556 30.4445 3.67778 30.6912 3.58444 30.6956C2.64225 30.7189 1.6986 30.7176 0.71253 30.7163C0.477612 30.7159 0.240287 30.7156 0 30.7156C0.0599172 30.3846 0.117058 30.0629 0.173038 29.7477C0.283154 29.1277 0.388781 28.533 0.502222 27.9423C0.861721 26.0555 1.22284 24.1691 1.58398 22.2827C2.16712 19.2365 2.75028 16.1902 3.32667 13.1423C3.38444 12.8312 3.47556 12.6156 3.79778 12.5667C6.24 12.1978 8.68444 11.9489 11.1222 12.5512ZM7.81778 21.02C9.16667 20.8756 10.2622 20.2645 10.8644 18.9778C11.5511 17.52 11.0578 15.9734 9.75556 15.5156C8.83111 15.1845 7.87778 15.2556 6.92889 15.3823C6.81333 15.4 6.65556 15.5756 6.62889 15.7023C6.34666 17.1339 6.07702 18.5688 5.78292 20.1337C5.72735 20.4294 5.6709 20.7297 5.61333 21.0356C5.86453 21.0356 6.10714 21.0416 6.34338 21.0473C6.85739 21.0599 7.34124 21.0718 7.81778 21.02Z" fill="white"/>
<path d="M34.2644 12.4467C33.9088 9.42449 32.6066 6.84893 30.5355 4.65338C30.2955 4.3956 29.9466 4.20671 29.6133 4.08449C29.2688 3.96005 29.0422 4.1556 29.0755 4.54893C29.1044 4.89338 29.1355 5.24227 29.1955 5.58449C29.6155 7.96005 30.0222 10.34 30.4733 12.7134C30.8266 14.5667 31.2133 16.4156 31.6333 18.2556C31.7711 18.8512 32.0111 19.4378 32.2955 19.9823C32.5111 20.3978 32.8222 20.3645 33.1111 19.9845C33.2333 19.8267 33.3666 19.6645 33.4311 19.4823C34.0533 17.7778 34.3755 16.0178 34.4133 14.2C34.3644 13.6156 34.3333 13.0289 34.2644 12.4467Z" fill="white"/>
<path d="M102.584 20.0645C102.662 19.1978 102.727 18.3289 102.8 17.4022C101.729 17.4022 100.731 17.3889 99.7489 17.42C99.6334 17.4245 99.4378 17.6667 99.4289 17.8067C99.1511 21.2489 98.4511 24.6245 97.7756 28.0045C97.6045 28.88 97.4511 29.7578 97.28 30.7222C98.5623 30.7222 99.7645 30.7311 100.971 30.7045C101.062 30.7022 101.196 30.4489 101.227 30.3C101.604 28.4556 101.896 26.5845 102.342 24.7533C102.984 22.1222 104.069 21.2111 106.638 20.8733C106.751 20.8578 106.92 20.7378 106.942 20.6445C107.184 19.5022 107.402 18.36 107.644 17.1245C105.167 16.8667 103.784 18.2933 102.584 20.0645Z" fill="white"/>
<path fill-rule="evenodd" clip-rule="evenodd" d="M97.0712 20.8689C97.1757 22.5845 96.389 23.88 94.7623 24.64C93.129 25.4 91.3712 25.5045 89.6046 25.5445C89.3632 25.5503 89.1218 25.5484 88.874 25.5465C88.7476 25.5455 88.6196 25.5445 88.489 25.5445C88.3601 26.8267 89.2801 27.8089 90.6734 27.9778C91.9757 28.1333 93.2334 27.94 94.4579 27.4911C94.6623 27.4222 94.869 27.3445 95.1401 27.24C95.1579 27.4131 95.1761 27.5842 95.1941 27.7539C95.2638 28.4098 95.331 29.0426 95.3646 29.6711C95.369 29.8267 95.1957 30.0844 95.0446 30.1445C92.8334 31.0533 90.5468 31.3645 88.2157 30.7289C86.1201 30.1556 85.0179 28.6333 84.7668 26.5422C84.4423 23.8733 85.1268 21.4556 86.989 19.48C88.9846 17.3578 91.4668 16.6 94.3023 17.3822C96.0379 17.8622 96.9623 19.1111 97.0712 20.8689ZM93.4379 20.9067C93.3646 20.3645 92.9912 20.1022 92.4912 19.9645C90.9401 19.54 89.0268 20.9511 88.8534 22.7756C89.1067 22.7593 89.3558 22.7471 89.6017 22.7351C90.1606 22.7079 90.703 22.6814 91.2401 22.6089C91.7623 22.54 92.2823 22.3845 92.7601 22.1711C93.2779 21.9511 93.5157 21.4889 93.4379 20.9067Z" fill="white"/>
<path d="M70.129 19.88C69.969 18.4356 68.9956 17.3978 67.5845 17.1578C65.8756 16.8778 64.3956 17.3756 63.1089 18.4978C62.7578 18.8023 62.4267 19.1312 62.0445 19.4889C62.0978 18.7889 62.1534 18.1134 62.2067 17.4112C61.0645 17.4112 60.0023 17.4112 58.8978 17.4112C58.0801 21.84 57.2756 26.2312 56.4512 30.7134C57.7245 30.7134 58.8734 30.7289 60.0289 30.6934C60.1578 30.6889 60.3578 30.4245 60.3889 30.2556C60.6756 28.8223 60.9356 27.3756 61.1867 25.94C61.4223 24.6134 61.6556 23.2956 62.3378 22.1112C62.7978 21.3023 63.3578 20.5778 64.3001 20.2778C65.2667 19.9689 65.9956 20.4356 66.1089 21.4334C66.1445 21.7223 66.1645 22.0245 66.1178 22.3112C65.849 23.9934 65.5578 25.6734 65.2623 27.3489C65.0689 28.4445 64.8556 29.5378 64.6512 30.62C64.7556 30.6689 64.8067 30.7089 64.8556 30.7089C65.9756 30.7178 67.0978 30.74 68.2178 30.7089C68.3467 30.7045 68.5401 30.4489 68.5778 30.2867C68.9601 28.4 69.3156 26.5156 69.6734 24.6223C69.9756 23.06 70.3067 21.4956 70.129 19.88Z" fill="white"/>
<path fill-rule="evenodd" clip-rule="evenodd" d="M81.8866 24.58C80.6666 25.1845 79.3489 25.4134 78.0066 25.4911C77.4309 25.5263 76.8511 25.5173 76.2655 25.5083C75.999 25.5042 75.7312 25.5 75.4622 25.5C75.3711 26.8534 76.2866 27.8134 77.6711 27.9822C79.0089 28.1489 80.3066 27.9356 81.5555 27.4556C81.6165 27.4343 81.677 27.4117 81.7375 27.3892C81.8159 27.36 81.8943 27.3308 81.9733 27.3045C81.9916 27.2974 82.0144 27.2984 82.0529 27.3001C82.0751 27.301 82.1027 27.3022 82.1377 27.3022C82.1573 27.5067 82.1781 27.7116 82.1989 27.9168C82.2584 28.5035 82.3181 29.0929 82.3511 29.6822C82.3533 29.8356 82.1755 30.0934 82.0289 30.1511C79.8511 31.0422 77.5933 31.3534 75.2977 30.76C73.1577 30.2089 71.9844 28.6734 71.7466 26.5311C71.4133 23.5 72.3 20.84 74.66 18.8311C76.6044 17.1756 78.8866 16.6578 81.36 17.3956C83.0133 17.8867 83.9377 19.12 84.0622 20.8289C84.1777 22.5134 83.4444 23.7956 81.8866 24.58ZM80.4289 20.9267C80.3422 20.3689 79.9689 20.0867 79.44 19.9578C77.8844 19.58 76.0577 20.9445 75.8489 22.6711C76.86 22.8822 78.9133 22.6356 79.7 22.22C80.2422 21.9378 80.5155 21.4711 80.4289 20.9267Z" fill="white"/>
<path fill-rule="evenodd" clip-rule="evenodd" d="M53.7512 18.1956C55.0557 19.1644 55.689 20.5133 55.7935 22.1111C55.8912 23.7756 55.609 25.3778 54.8223 26.8511C53.3468 29.6133 50.9957 30.96 48.6179 31.0289C45.1646 31.0333 43.1979 29.7578 42.4735 27.4556C41.2868 23.6756 43.5668 17.7733 49.149 17.1533C50.8201 16.9689 52.3801 17.1778 53.7512 18.1956ZM48.5646 28.0822C49.2801 28.0178 49.8468 27.6422 50.2779 27.0933C51.4379 25.6244 51.889 23.92 51.7335 22.0933C51.609 20.5956 50.4757 19.7889 49.0912 20.1089C48.4179 20.26 47.9135 20.6844 47.509 21.2289C46.6046 22.4489 46.2401 23.8511 46.1979 25.3489C46.1979 25.4101 46.1966 25.4724 46.1953 25.5353C46.1924 25.6732 46.1894 25.8137 46.2001 25.9511C46.3046 27.3111 47.2823 28.2022 48.5646 28.0822Z" fill="white"/>
</svg>
