<svg width="96" height="28" viewBox="0 0 96 28" fill="none" xmlns="http://www.w3.org/2000/svg">
<path fill-rule="evenodd" clip-rule="evenodd" d="M15.4654 3.35072C16.0702 3.73339 16.5574 4.24299 16.8654 4.86086C17.2051 5.47686 17.3563 6.24966 17.3582 7.16992C17.3582 9.27179 16.4939 10.9686 14.7411 12.2529C12.9976 13.5353 10.571 14.1755 7.43683 14.1793H6.70323C6.14137 14.1793 5.59257 14.6217 5.47497 15.1518L4.59577 18.9598C4.47257 19.503 3.9219 19.9342 3.36563 19.9342H0.802701C0.246435 19.9342 -0.102632 19.4899 0.0280347 18.9598L3.62883 3.27606C3.7595 2.73846 4.30457 2.30539 4.86083 2.29792L10.2126 2.29419C11.3718 2.30539 12.3723 2.37632 13.2384 2.53312C14.0896 2.69366 14.8344 2.96432 15.4654 3.35072ZM8.09764 10.8361C9.48643 10.8361 10.5635 10.5523 11.3382 9.98486C12.1091 9.41739 12.5067 8.61659 12.4918 7.57499C12.4955 6.88992 12.2472 6.37286 11.7526 6.04806C11.2523 5.71952 10.5038 5.54966 9.52377 5.54966L8.68377 5.55526C8.1331 5.55152 7.57123 5.99392 7.46297 6.52779L6.69203 9.85792C6.5707 10.3955 6.9123 10.8361 7.47043 10.8361H8.09764Z" fill="white"/>
<path d="M89.9267 3.52238L89.7661 3.57091L89.5515 3.60078L89.2883 3.55972L89.1539 3.42905L89.0923 3.22372L89.0885 2.91571V1.77518H89.9453V1.42238H89.0885V0.711182H88.6648V1.42238H88.3773V1.77518H88.6648V3.10238L88.8627 3.75945L89.4451 3.96851L89.6896 3.94798L89.9491 3.89758V3.52238H89.9267Z" fill="white"/>
<path d="M93.9008 1.60344L93.2885 1.35144L92.8368 1.44291L92.3776 1.75277L92.1106 1.45597L91.6776 1.35331L91.2613 1.44477L90.8674 1.69864V1.42237H90.4512V3.91437H90.8656V2.05331L91.2146 1.83677L91.5618 1.75091L91.8456 1.80131L91.9856 1.94504L92.0472 2.18397L92.0677 2.49197V3.91624H92.484V2.32211L92.4765 2.18957L92.469 2.06824L92.8237 1.84237L93.1746 1.75464L93.449 1.80504L93.5984 1.94877L93.6506 2.18957L93.6786 2.49384V3.91811H94.0968V2.29971L93.9008 1.60344Z" fill="white"/>
<path fill-rule="evenodd" clip-rule="evenodd" d="M24.6438 6.28503C26.7307 6.28503 28.2577 6.55757 29.2246 7.10263C30.1934 7.64583 30.6881 8.49517 30.6806 9.6413L30.6358 10.2592L30.5387 10.9181L28.6702 19.0064C28.5582 19.4954 28.0785 19.9061 27.567 19.9658L27.5334 19.9808H27.1638H25.1982H25.1534L25.1441 19.9696C24.6569 19.921 24.3545 19.5104 24.459 19.0101V19.0064L24.4646 18.9896L24.5617 18.5789L24.5486 18.5602L23.5817 19.1986L22.5307 19.781L21.2894 20.2085C20.9086 20.3 20.3729 20.3541 19.6803 20.3578C18.5865 20.3578 17.6718 20.0554 16.9793 19.4357C16.2905 18.8048 15.9358 17.989 15.9358 17.0016C15.9358 15.9525 16.1803 15.0584 16.6694 14.321C17.1753 13.5874 17.8995 13.0106 18.8758 12.5813C19.7849 12.165 20.8787 11.8608 22.1257 11.6872C23.4006 11.5024 24.4515 11.368 25.9057 11.2765L26.2753 11.0488L26.3201 10.6866C26.3201 10.1304 26.0625 9.74583 25.5473 9.52183C25.0246 9.30157 24.2406 9.1933 23.2158 9.1933C22.5214 9.18397 21.6459 9.32583 20.8153 9.51437C20.2121 9.64897 19.9132 9.75307 19.6447 9.84656C19.526 9.8879 19.4132 9.92718 19.2827 9.9661C19.0849 10.0352 18.6107 10.0669 18.7881 9.2437L19.1017 7.95383C19.1017 7.95383 19.2547 6.9813 20.2291 6.7685C20.2798 6.75749 20.3259 6.74739 20.3688 6.73801C20.7254 6.65993 20.8584 6.63082 21.5433 6.52583C22.583 6.3653 23.6115 6.28503 24.6438 6.28503ZM24.6923 16.7234L25.0918 16.197C25.2486 15.5773 25.5771 14.2034 25.6126 14.0261L25.4353 13.7144C25.2841 13.7181 24.1267 13.8506 23.5406 13.9234C22.8835 14.0149 22.3161 14.1474 21.8513 14.3042L20.7649 15.0434C20.5091 15.3608 20.3897 15.7733 20.3897 16.2941L20.8843 17.2554C21.2185 17.4421 21.7131 17.5336 22.3441 17.5336C22.7603 17.5336 23.2102 17.4365 23.6843 17.2442L24.6923 16.7234Z" fill="white"/>
<path fill-rule="evenodd" clip-rule="evenodd" d="M71.1966 6.29443C73.2779 6.29443 74.803 6.56883 75.7755 7.1139C76.7518 7.6571 77.2408 8.5027 77.239 9.6451L77.1848 10.2648L77.0859 10.9275L75.2118 19.0046C75.1054 19.4992 74.6275 19.9099 74.1216 19.9715L74.0824 19.9846H73.7203H71.7491H71.7043L71.7006 19.9752C71.2078 19.9304 70.9035 19.516 71.0192 19.0158L71.0155 19.0083L71.0248 19.0008L71.1126 18.5864L71.0958 18.5659L70.1363 19.2118L69.076 19.7942L67.8384 20.216C67.4558 20.315 66.92 20.3598 66.2312 20.3672C65.1374 20.3672 64.232 20.0574 63.5358 19.4395C62.8376 18.8123 62.4867 17.9966 62.4867 17.0016C62.4867 15.9619 62.7275 15.0696 63.2222 14.3323C63.7224 13.5968 64.456 13.02 65.4286 12.5888C66.3395 12.1707 67.4371 11.8683 68.6803 11.6947C69.9422 11.5099 70.995 11.3755 72.464 11.2878L72.8299 11.0544L72.8691 10.6942C72.8691 10.1435 72.6152 9.75523 72.0963 9.53123C71.5755 9.31097 70.7915 9.20083 69.7704 9.20083C69.0742 9.1971 68.1912 9.33523 67.3643 9.5219C66.7765 9.65931 66.4827 9.76116 66.2198 9.85228C66.097 9.89485 65.9809 9.93508 65.8448 9.9755C65.6283 10.039 65.1654 10.0763 65.3408 9.2531L65.6544 7.9651C65.6544 7.9651 65.8056 6.98883 66.7782 6.7779C66.8387 6.76503 66.8928 6.7534 66.9426 6.74269C67.2831 6.66947 67.427 6.63853 68.0979 6.54083C69.1339 6.3747 70.1643 6.29443 71.1966 6.29443ZM71.2358 16.7403L71.652 16.2083C71.8051 15.5848 72.1355 14.2166 72.1616 14.0392L71.9806 13.7275C71.8312 13.7294 70.6776 13.8656 70.0952 13.9384C69.4344 14.0336 68.867 14.1606 68.4078 14.3174C67.9374 14.5003 67.5584 14.7504 67.3102 15.0547C67.0656 15.3776 66.9443 15.7864 66.9443 16.3091L67.4446 17.2667C67.7694 17.4534 68.251 17.5467 68.9024 17.5467C69.3112 17.5467 69.763 17.4478 70.2371 17.2574L71.2358 16.7403Z" fill="white"/>
<path fill-rule="evenodd" clip-rule="evenodd" d="M61.9976 3.4029C62.6061 3.7949 63.0877 4.29703 63.4088 4.91863C63.7336 5.52903 63.8922 6.3037 63.9016 7.22023C63.9016 9.32396 63.0261 11.017 61.2957 12.3106C59.5448 13.5893 57.1125 14.2352 53.9746 14.2352H53.241C52.6866 14.2314 52.136 14.6776 52.009 15.2077L51.141 19.0176C51.0122 19.5552 50.4541 19.992 49.909 19.9882L47.3424 19.992C46.7973 19.992 46.4389 19.5514 46.5696 19.0194L50.1741 3.32823C50.3029 2.79623 50.8386 2.36316 51.3968 2.35383L56.756 2.3501C57.9077 2.35196 58.9213 2.4341 59.7706 2.5853C60.6349 2.7421 61.3741 3.01463 61.9976 3.4029ZM54.6485 10.8901C56.0298 10.8901 57.1088 10.6064 57.8816 10.0501C58.6506 9.4789 59.037 8.67623 59.0314 7.63463C59.0258 6.95143 58.7888 6.43623 58.2866 6.1077C57.7826 5.77916 57.0434 5.61676 56.0578 5.61116L55.2272 5.61676C54.6728 5.61116 54.1165 6.0573 54.0026 6.5893L53.2261 9.91383C53.1029 10.4477 53.4594 10.8957 54.0101 10.8901H54.6485Z" fill="white"/>
<path d="M85.3851 3.45328C85.5027 2.91755 85.1667 2.48262 84.616 2.49008H82.32C81.8496 2.49008 81.4259 2.83915 81.2187 3.26848L81.0917 3.46635L80.976 3.97408L77.7672 18.5602L77.6627 19.0082L77.6664 19.0194C77.56 19.4992 77.8549 19.8613 78.3104 19.9304L78.3496 19.9845H80.7333C81.2 19.9845 81.6387 19.6298 81.8384 19.193L81.9616 19.0064L85.3925 3.45515L85.3851 3.45328Z" fill="white"/>
<path d="M46.6406 6.48105C46.0339 6.48851 43.568 6.48105 43.568 6.48105C43.0155 6.48105 42.3062 6.92718 41.9552 7.45918C41.9552 7.45918 38.2854 13.7573 37.9288 14.3901L37.5032 14.3845L36.3608 7.50211C36.2339 6.96078 35.6683 6.49785 34.9646 6.49785L32.6686 6.50158C32.116 6.50158 31.7763 6.94211 31.9014 7.47971C31.9014 7.47971 33.6448 17.401 33.9939 19.7362C34.1563 21.0242 33.9734 21.2538 33.9734 21.2538L31.7035 25.2074C31.3675 25.745 31.5486 26.1837 32.0992 26.1837L34.7536 26.18C35.3062 26.18 36.0323 25.745 36.3608 25.2056L46.5715 7.93518C46.5715 7.93705 47.5534 6.46051 46.6406 6.48105Z" fill="white"/>
</svg>
